<svg width="1965" height="453" viewBox="0 0 1965 453" fill="none" xmlns="http://www.w3.org/2000/svg">
<g clip-path="url(#clip0_27_90)">
<rect x="3" y="3" width="1959" height="447" rx="21" fill="white" stroke="#22242C" stroke-width="6"/>
<path d="M966.122 226.5C966.122 240.067 955.123 251.065 941.556 251.065C927.989 251.065 916.99 240.067 916.99 226.5C916.99 212.933 927.989 201.934 941.556 201.934C955.123 201.934 966.122 212.933 966.122 226.5Z" fill="#22242C"/>
<path d="M597.638 226.5C597.638 240.067 586.64 251.065 573.072 251.065C559.505 251.065 548.507 240.067 548.507 226.5C548.507 212.933 559.505 201.934 573.072 201.934C586.64 201.934 597.638 212.933 597.638 226.5Z" fill="#22242C"/>
<path d="M1191.31 365.705C1191.31 379.272 1180.31 390.27 1166.74 390.27C1153.17 390.27 1142.17 379.272 1142.17 365.705C1142.17 352.138 1153.17 341.139 1166.74 341.139C1180.31 341.139 1191.31 352.138 1191.31 365.705Z" fill="#22242C"/>
<path d="M1436.96 226.5C1436.96 240.067 1425.96 251.065 1412.4 251.065C1398.83 251.065 1387.83 240.067 1387.83 226.5C1387.83 212.933 1398.83 201.934 1412.4 201.934C1425.96 201.934 1436.96 212.933 1436.96 226.5Z" fill="#22242C"/>
<path d="M1166.74 111.861C1180.31 111.861 1191.31 100.862 1191.31 87.2949C1191.31 73.7278 1180.31 62.7294 1166.74 62.7294C1153.17 62.7294 1142.17 73.7278 1142.17 87.2949C1142.17 100.862 1153.17 111.861 1166.74 111.861Z" fill="#22242C"/>
<path fill-rule="evenodd" clip-rule="evenodd" d="M1166.74 65.459C1154.68 65.459 1144.91 75.2354 1144.91 87.2951C1144.91 99.3548 1154.68 109.131 1166.74 109.131C1178.8 109.131 1188.58 99.3548 1188.58 87.2951C1188.58 75.2354 1178.8 65.459 1166.74 65.459ZM1139.56 84.7494C1140.85 70.8683 1152.52 60 1166.74 60C1180.94 60 1192.61 70.8439 1193.91 84.7026C1194.66 84.7475 1195.56 84.8048 1196.59 84.8765C1199.78 85.0997 1204.24 85.462 1209.27 86.0192C1219.29 87.1275 1231.81 89.0278 1241.31 92.2136C1271.85 102.465 1282.18 129.706 1291.95 155.482L1292.12 155.93C1302.11 182.279 1311.66 207.038 1339.57 216.406C1348.48 219.396 1360.52 221.249 1370.47 222.35C1375.41 222.897 1379.79 223.254 1382.93 223.473C1383.81 223.534 1384.58 223.584 1385.25 223.625C1386.69 209.902 1398.29 199.205 1412.4 199.205C1427.47 199.205 1439.69 211.425 1439.69 226.5C1439.69 241.575 1427.47 253.795 1412.4 253.795C1398.29 253.795 1386.69 243.098 1385.25 229.375C1384.58 229.416 1383.81 229.466 1382.93 229.527C1379.79 229.747 1375.41 230.103 1370.47 230.65C1360.52 231.751 1348.48 233.604 1339.57 236.594C1311.66 245.962 1302.11 270.721 1292.12 297.07L1291.95 297.518C1282.18 323.294 1271.85 350.535 1241.31 360.786C1231.81 363.972 1219.29 365.872 1209.27 366.981C1204.24 367.538 1199.78 367.9 1196.59 368.123C1195.56 368.195 1194.66 368.253 1193.91 368.297C1192.61 382.156 1180.94 393 1166.74 393C1152.52 393 1140.85 382.132 1139.56 368.251C1138.94 368.201 1138.2 368.14 1137.37 368.066C1134.5 367.813 1130.5 367.415 1125.99 366.833C1117.01 365.677 1105.76 363.773 1097.25 360.773C1067.92 350.429 1059.56 323.097 1051.7 297.412L1051.54 296.901C1043.46 270.523 1035.76 245.937 1009.23 236.58C1001.29 233.782 990.528 231.933 981.614 230.786C977.184 230.216 973.261 229.825 970.447 229.576C969.803 229.52 969.217 229.47 968.697 229.428C967.236 243.126 955.642 253.795 941.557 253.795C927.403 253.795 915.766 243.023 914.396 229.23H600.234C598.864 243.023 587.227 253.795 573.073 253.795C557.999 253.795 545.778 241.575 545.778 226.5C545.778 211.425 557.999 199.205 573.073 199.205C587.227 199.205 598.864 209.977 600.234 223.77H914.396C915.766 209.977 927.403 199.205 941.557 199.205C955.642 199.205 967.236 209.874 968.697 223.572C969.217 223.53 969.803 223.48 970.447 223.424C973.261 223.175 977.184 222.784 981.614 222.214C990.528 221.067 1001.29 219.218 1009.23 216.42C1035.76 207.063 1043.46 182.477 1051.54 156.099L1051.7 155.588C1059.56 129.903 1067.92 102.571 1097.25 92.2271C1105.76 89.2269 1117.01 87.3226 1125.99 86.1665C1130.5 85.585 1134.5 85.1867 1137.37 84.9336C1138.2 84.8604 1138.94 84.7993 1139.56 84.7494ZM1139.6 90.223C1139.08 90.2653 1138.5 90.3146 1137.85 90.3714C1135.04 90.6197 1131.11 91.0107 1126.68 91.5809C1117.77 92.7283 1107.01 94.5771 1099.07 97.3754C1072.53 106.732 1064.83 131.318 1056.76 157.696L1056.6 158.207C1048.74 183.892 1040.38 211.224 1011.04 221.568C1004.87 223.745 997.259 225.344 990.116 226.5C997.259 227.656 1004.87 229.255 1011.04 231.432C1040.38 241.776 1048.74 269.108 1056.6 294.793L1056.76 295.304C1064.83 321.682 1072.53 346.268 1099.07 355.625C1107.01 358.423 1117.77 360.272 1126.68 361.419C1131.11 361.989 1135.04 362.38 1137.85 362.629C1138.5 362.685 1139.08 362.735 1139.6 362.777C1141.06 349.079 1152.66 338.41 1166.74 338.41C1180.84 338.41 1192.45 349.107 1193.89 362.83C1194.55 362.789 1195.33 362.739 1196.21 362.678C1199.35 362.458 1203.73 362.102 1208.67 361.555C1218.62 360.454 1230.66 358.601 1239.57 355.611C1267.48 346.243 1277.03 321.484 1287.02 295.135L1287.19 294.687C1296.96 268.911 1307.29 241.67 1337.83 231.419C1344.38 229.222 1352.37 227.636 1359.98 226.5C1352.37 225.364 1344.38 223.778 1337.83 221.582C1307.29 211.33 1296.96 184.089 1287.19 158.313L1287.02 157.865C1277.03 131.516 1267.48 106.757 1239.57 97.3889C1230.66 94.3987 1218.62 92.5459 1208.67 91.4451C1203.73 90.8978 1199.35 90.5416 1196.21 90.3223C1195.33 90.2613 1194.55 90.2109 1193.89 90.17C1192.45 103.893 1180.84 114.59 1166.74 114.59C1152.66 114.59 1141.06 103.921 1139.6 90.223ZM573.073 204.664C561.013 204.664 551.237 214.44 551.237 226.5C551.237 238.56 561.013 248.336 573.073 248.336C585.133 248.336 594.909 238.56 594.909 226.5C594.909 214.44 585.133 204.664 573.073 204.664ZM941.557 204.664C929.497 204.664 919.721 214.44 919.721 226.5C919.721 238.56 929.497 248.336 941.557 248.336C953.617 248.336 963.393 238.56 963.393 226.5C963.393 214.44 953.617 204.664 941.557 204.664ZM1412.4 204.664C1400.34 204.664 1390.56 214.44 1390.56 226.5C1390.56 238.56 1400.34 248.336 1412.4 248.336C1424.46 248.336 1434.23 238.56 1434.23 226.5C1434.23 214.44 1424.46 204.664 1412.4 204.664ZM1166.74 343.869C1154.68 343.869 1144.91 353.645 1144.91 365.705C1144.91 377.765 1154.68 387.541 1166.74 387.541C1178.8 387.541 1188.58 377.765 1188.58 365.705C1188.58 353.645 1178.8 343.869 1166.74 343.869Z" fill="#22242C"/>
<path fill-rule="evenodd" clip-rule="evenodd" d="M573.073 390.271C663.521 390.271 736.844 316.948 736.844 226.5C736.844 136.052 663.521 62.7295 573.073 62.7295C482.625 62.7295 409.303 136.052 409.303 226.5C409.303 316.948 482.625 390.271 573.073 390.271ZM573.073 349.328C640.909 349.328 695.901 294.336 695.901 226.5C695.901 158.664 640.909 103.672 573.073 103.672C505.237 103.672 450.245 158.664 450.245 226.5C450.245 294.336 505.237 349.328 573.073 349.328Z" fill="#22242C"/>
<path fill-rule="evenodd" clip-rule="evenodd" d="M1064.38 226.5C1064.38 316.948 991.062 390.271 900.614 390.271H835.106C826.061 390.271 818.729 382.938 818.729 373.893V79.1066C818.729 70.0618 826.061 62.7295 835.106 62.7295H900.614C991.062 62.7295 1064.38 136.052 1064.38 226.5ZM900.614 349.328C968.45 349.328 1023.44 294.336 1023.44 226.5C1023.44 158.664 968.45 103.672 900.614 103.672H876.049C867.004 103.672 859.672 111.004 859.672 120.049V332.951C859.672 341.995 867.004 349.328 876.049 349.328H900.614Z" fill="#22242C"/>
<path d="M1170.84 313.844C1179.88 313.844 1187.21 306.512 1187.21 297.467V155.533C1187.21 146.488 1179.88 139.156 1170.84 139.156H1162.65C1153.6 139.156 1146.27 146.488 1146.27 155.533V297.467C1146.27 306.512 1153.6 313.844 1162.65 313.844H1170.84Z" fill="#22242C"/>
<path fill-rule="evenodd" clip-rule="evenodd" d="M1555.7 79.1066C1555.7 70.0618 1548.36 62.7295 1539.32 62.7295H1531.13C1522.09 62.7295 1514.75 70.0618 1514.75 79.1066V280.706C1514.75 296.344 1494.93 303.086 1485.4 290.691L1467.07 266.873C1461.05 259.037 1449.5 258.288 1442.51 265.278L1439.17 268.623C1433.35 274.439 1432.75 283.668 1437.77 290.188L1509.84 383.879C1512.94 387.909 1517.73 390.271 1522.82 390.271H1539.32C1548.36 390.271 1555.7 382.938 1555.7 373.893V79.1066Z" fill="#22242C"/>
<path fill-rule="evenodd" clip-rule="evenodd" d="M1269.1 79.1066C1269.1 70.0618 1276.43 62.7295 1285.47 62.7295H1301.98C1307.06 62.7295 1311.86 65.0911 1314.96 69.1213L1388.22 164.369C1393.24 170.889 1392.64 180.115 1386.83 185.932C1385.75 187.009 1384.63 188.131 1383.48 189.278C1376.49 196.269 1364.95 195.524 1358.92 187.688C1352.51 179.351 1345.76 170.578 1339.39 162.303C1329.86 149.908 1310.04 156.656 1310.04 172.294V373.893C1310.04 382.938 1302.71 390.271 1293.66 390.271H1285.47C1276.43 390.271 1269.1 382.938 1269.1 373.893V79.1066Z" fill="#22242C"/>
</g>
<defs>
<clipPath id="clip0_27_90">
<rect width="1965" height="453" fill="white"/>
</clipPath>
</defs>
</svg>
